# xmcd
#
# Track frame offsets: 
#        150
#        13337
#        21391
#        40174
#        54289
#        68811
#        81341
#        91987
#        108932
#        127502
#        140419
#
# Disc length: 2044 seconds
#
# Revision: 0
# Processed by: cddbd v1.5.2PL0 Copyright (c) Steve Scherf et al.
# Submitted via: ExactAudioCopy v1.0b3
#
DISCID=8807fa0b
DTITLE=Johnny Cash - The Box Set Series - Johnny Cash - Disc 3
DYEAR=1900
DGENRE=Country
TTITLE0=Forty Shades Of Green
TTITLE1=You Wild Colorado
TTITLE2=The Ballad Of Ira Hayes
TTITLE3=The Long Black Veil
TTITLE4=25 Minutes To Go
TTITLE5=Jackson (with June Carter)
TTITLE6=Daddy Sang Bass
TTITLE7=A Boy Named Sue
TTITLE8=Sunday Mornin' Comin' Down
TTITLE9=Wanted Man
TTITLE10=Man In Black
EXTD=
EXTT0=
EXTT1=
EXTT2=
EXTT3=
EXTT4=
EXTT5=
EXTT6=
EXTT7=
EXTT8=
EXTT9=
EXTT10=
PLAYORDER=
